<svg width="23" height="24" viewBox="0 0 23 24" fill="none" xmlns="http://www.w3.org/2000/svg">
<mask id="mask0_1_1609" style="mask-type:luminance" maskUnits="userSpaceOnUse" x="0" y="0" width="23" height="24">
<path d="M22.2159 9.90909H11.5V14.3523H17.6682C17.0932 17.175 14.6886 18.7955 11.5 18.7955C7.73637 18.7955 4.70455 15.7636 4.70455 12C4.70455 8.23637 7.73637 5.20455 11.5 5.20455C13.1205 5.20455 14.5841 5.77955 15.7341 6.72046L19.0796 3.375C17.0409 1.59773 14.4273 0.5 11.5 0.5C5.12273 0.5 0 5.62273 0 12C0 18.3773 5.12273 23.5 11.5 23.5C17.25 23.5 22.4773 19.3182 22.4773 12C22.4773 11.3205 22.3727 10.5886 22.2159 9.90909Z" fill="white"/>
</mask>
<g mask="url(#mask0_1_1609)">
<path d="M-1.04544 18.7954V5.20453L7.84093 12L-1.04544 18.7954Z" fill="#FBBC05"/>
</g>
<mask id="mask1_1_1609" style="mask-type:luminance" maskUnits="userSpaceOnUse" x="0" y="0" width="23" height="24">
<path d="M22.2159 9.90909H11.5V14.3523H17.6682C17.0932 17.175 14.6886 18.7955 11.5 18.7955C7.73637 18.7955 4.70455 15.7636 4.70455 12C4.70455 8.23637 7.73637 5.20455 11.5 5.20455C13.1205 5.20455 14.5841 5.77955 15.7341 6.72046L19.0796 3.375C17.0409 1.59773 14.4273 0.5 11.5 0.5C5.12273 0.5 0 5.62273 0 12C0 18.3773 5.12273 23.5 11.5 23.5C17.25 23.5 22.4773 19.3182 22.4773 12C22.4773 11.3205 22.3727 10.5886 22.2159 9.90909Z" fill="white"/>
</mask>
<g mask="url(#mask1_1_1609)">
<path d="M-1.04544 5.20453L7.84093 12L11.5 8.81135L24.0455 6.77271V-0.545471H-1.04544V5.20453Z" fill="#EA4335"/>
</g>
<mask id="mask2_1_1609" style="mask-type:luminance" maskUnits="userSpaceOnUse" x="0" y="0" width="23" height="24">
<path d="M22.2159 9.90909H11.5V14.3523H17.6682C17.0932 17.175 14.6886 18.7955 11.5 18.7955C7.73637 18.7955 4.70455 15.7636 4.70455 12C4.70455 8.23637 7.73637 5.20455 11.5 5.20455C13.1205 5.20455 14.5841 5.77955 15.7341 6.72046L19.0796 3.375C17.0409 1.59773 14.4273 0.5 11.5 0.5C5.12273 0.5 0 5.62273 0 12C0 18.3773 5.12273 23.5 11.5 23.5C17.25 23.5 22.4773 19.3182 22.4773 12C22.4773 11.3205 22.3727 10.5886 22.2159 9.90909Z" fill="white"/>
</mask>
<g mask="url(#mask2_1_1609)">
<path d="M-1.04544 18.7954L14.6364 6.77271L18.7659 7.29544L24.0455 -0.545471V24.5454H-1.04544V18.7954Z" fill="#34A853"/>
</g>
<mask id="mask3_1_1609" style="mask-type:luminance" maskUnits="userSpaceOnUse" x="0" y="0" width="23" height="24">
<path d="M22.2159 9.90909H11.5V14.3523H17.6682C17.0932 17.175 14.6886 18.7955 11.5 18.7955C7.73637 18.7955 4.70455 15.7636 4.70455 12C4.70455 8.23637 7.73637 5.20455 11.5 5.20455C13.1205 5.20455 14.5841 5.77955 15.7341 6.72046L19.0796 3.375C17.0409 1.59773 14.4273 0.5 11.5 0.5C5.12273 0.5 0 5.62273 0 12C0 18.3773 5.12273 23.5 11.5 23.5C17.25 23.5 22.4773 19.3182 22.4773 12C22.4773 11.3205 22.3727 10.5886 22.2159 9.90909Z" fill="white"/>
</mask>
<g mask="url(#mask3_1_1609)">
<path d="M24.0455 24.5454L7.84091 12L5.75 10.4318L24.0455 5.20453V24.5454Z" fill="#4285F4"/>
</g>
</svg>
