<svg xmlns="http://www.w3.org/2000/svg" width="18" height="18" viewBox="0 0 18 18" fill="none">
<path fill-rule="evenodd" clip-rule="evenodd" d="M0.988791 8.99994C0.988791 9.63201 1.50118 10.1444 2.13325 10.1444L7.85557 10.1444L7.85557 15.8667C7.85557 16.4988 8.36796 17.0112 9.00003 17.0112C9.6321 17.0112 10.1445 16.4988 10.1445 15.8667L10.1445 10.1444L15.8668 10.1444C16.4988 10.1444 17.0112 9.63201 17.0112 8.99995C17.0112 8.36788 16.4988 7.85549 15.8668 7.85549L10.1445 7.85548L10.1445 2.13317C10.1445 1.5011 9.63209 0.98871 9.00002 0.98871C8.36795 0.988711 7.85556 1.5011 7.85556 2.13317L7.85557 7.85548L2.13325 7.85548C1.50118 7.85548 0.988791 8.36787 0.988791 8.99994Z" fill="currentColor"/>
</svg>